<svg xmlns="http://www.w3.org/2000/svg" xmlns:xlink="http://www.w3.org/1999/xlink" width="2000" zoomAndPan="magnify" viewBox="0 0 1500 1499.999933" height="2000" preserveAspectRatio="xMidYMid meet" version="1.0"><defs><g/><clipPath id="981246c55d"><rect x="0" width="586" y="0" height="1060"/></clipPath></defs><g transform="matrix(1, 0, 0, 1, 450, 310)"><g clip-path="url(#981246c55d)"><g fill="#12229d" fill-opacity="1"><g transform="translate(1.332534, 792.336409)"><g><path d="M 19.0625 -507.296875 C 19.0625 -546.128906 29.472656 -581.957031 50.296875 -614.78125 C 71.128906 -647.613281 99.375 -674.09375 135.03125 -694.21875 C 170.6875 -714.34375 210.753906 -724.40625 255.234375 -724.40625 C 281.359375 -724.40625 304.65625 -720.34375 325.125 -712.21875 C 345.601562 -704.101562 364.140625 -694.570312 380.734375 -683.625 C 397.328125 -672.675781 412.679688 -663.140625 426.796875 -655.015625 C 440.921875 -646.898438 454.335938 -642.84375 467.046875 -642.84375 C 493.878906 -642.84375 511.175781 -649.726562 518.9375 -663.5 C 526.707031 -677.269531 530.59375 -695.804688 530.59375 -719.109375 L 554.953125 -719.109375 C 558.484375 -690.160156 558.832031 -660.328125 556 -629.609375 C 553.175781 -598.898438 545.410156 -570.484375 532.703125 -544.359375 C 519.992188 -518.234375 501.285156 -497.050781 476.578125 -480.8125 C 451.867188 -464.570312 419.742188 -456.453125 380.203125 -456.453125 C 354.078125 -456.453125 330.953125 -462.273438 310.828125 -473.921875 C 290.710938 -485.578125 272.535156 -500.050781 256.296875 -517.34375 C 240.054688 -534.644531 225.40625 -552.296875 212.34375 -570.296875 C 199.28125 -588.304688 186.570312 -603.84375 174.21875 -616.90625 C 161.863281 -629.96875 149.15625 -637.910156 136.09375 -640.734375 C 123.03125 -643.554688 108.734375 -638.613281 93.203125 -625.90625 C 76.253906 -611.78125 73.601562 -594.300781 85.25 -573.46875 C 96.90625 -552.644531 121.441406 -531.46875 158.859375 -509.9375 C 196.273438 -488.40625 244.640625 -469.164062 303.953125 -452.21875 C 326.546875 -445.863281 353.195312 -436.859375 383.90625 -425.203125 C 414.625 -413.554688 444.804688 -398.378906 474.453125 -379.671875 C 504.109375 -360.960938 528.820312 -338.191406 548.59375 -311.359375 C 568.363281 -284.535156 578.25 -252.765625 578.25 -216.046875 C 578.25 -176.503906 567.65625 -139.789062 546.46875 -105.90625 C 525.289062 -72.019531 496.695312 -44.660156 460.6875 -23.828125 C 424.6875 -3.003906 383.738281 7.40625 337.84375 7.40625 C 311.71875 7.40625 287.710938 3.171875 265.828125 -5.296875 C 243.941406 -13.765625 223.816406 -23.296875 205.453125 -33.890625 C 187.097656 -44.484375 170.15625 -54.015625 154.625 -62.484375 C 139.09375 -70.953125 124.617188 -75.1875 111.203125 -75.1875 C 85.078125 -75.1875 67.953125 -68.300781 59.828125 -54.53125 C 51.710938 -40.769531 47.65625 -22.238281 47.65625 1.0625 L 24.359375 1.0625 C 20.117188 -27.882812 19.585938 -57.710938 22.765625 -88.421875 C 25.941406 -119.140625 33.882812 -147.5625 46.59375 -173.6875 C 59.300781 -199.8125 78.007812 -220.992188 102.71875 -237.234375 C 127.4375 -253.472656 159.210938 -261.59375 198.046875 -261.59375 C 224.171875 -261.59375 247.820312 -255.765625 269 -244.109375 C 290.1875 -232.460938 309.425781 -217.8125 326.71875 -200.15625 C 344.019531 -182.507812 360.082031 -164.679688 374.90625 -146.671875 C 389.726562 -128.671875 403.847656 -113.140625 417.265625 -100.078125 C 430.679688 -87.015625 444.097656 -79.070312 457.515625 -76.25 C 470.929688 -73.425781 485.050781 -78.367188 499.875 -91.078125 C 516.820312 -105.898438 517.703125 -124.253906 502.515625 -146.140625 C 487.335938 -168.035156 459.800781 -190.28125 419.90625 -212.875 C 380.019531 -235.46875 330.070312 -255.585938 270.0625 -273.234375 C 222.050781 -287.359375 178.984375 -303.597656 140.859375 -321.953125 C 102.734375 -340.304688 72.898438 -364.132812 51.359375 -393.4375 C 29.828125 -422.738281 19.0625 -460.691406 19.0625 -507.296875 Z M 19.0625 -507.296875 "/></g></g></g></g></g></svg>